<svg width="18" height="17" viewBox="0 0 18 17" fill="none" xmlns="http://www.w3.org/2000/svg">
<path fill-rule="evenodd" clip-rule="evenodd" d="M7.43614 1.26647C6.72118 0.857418 5.89312 0.623604 5.01048 0.623604C2.30844 0.623604 0.118042 2.81408 0.118042 5.51599C0.118042 6.65052 0.504282 7.69495 1.1525 8.52481C1.1525 8.52481 1.10748 8.652 1.10748 8.75939C1.10748 12.9691 4.5203 16.3817 8.73012 16.3817C9.10136 16.3817 9.95186 16.2856 9.95186 16.2856L10.0239 16.3254C10.0239 16.3254 10.889 16.9865 12.4497 16.968C15.1517 16.968 17.3421 14.7778 17.3421 12.0756C17.3421 10.9411 17.0474 9.89693 16.3993 9.0668L16.35 8.95991C16.3518 8.89307 16.3526 8.82623 16.3526 8.75939C16.3526 4.54942 12.9399 1.13679 8.73012 1.13679C8.30532 1.13679 7.88858 1.17134 7.4827 1.23818L7.43614 1.26647ZM8.93732 3.50626C7.97536 3.50626 7.00204 3.78638 6.0909 4.34665C5.17968 4.90691 4.65084 5.75957 4.65084 6.68481C4.65084 7.70772 5.16164 8.42844 5.96322 8.84675C6.76486 9.26532 7.64672 9.52117 8.60862 9.61404C9.67758 9.70716 10.3626 10.0794 10.6271 10.4747C10.8916 10.8698 10.8916 11.265 10.6271 11.6603C10.3626 12.0556 9.7324 12.3447 8.66362 12.3447C7.38104 12.2516 6.41744 11.7061 5.8831 11.1484C5.8831 11.1484 5.32176 10.5476 4.62414 11.1606C3.79188 11.8456 4.44468 12.4699 4.44468 12.4699C4.97902 12.9351 5.45546 13.3801 6.20372 13.6593C6.95188 13.9382 7.88448 14.0776 9.00152 14.0776C10.1771 14.0776 11.2073 13.7754 12.0918 13.1709C12.9763 12.5665 13.4186 11.8458 13.4186 11.0089C13.4186 9.93949 13.0044 9.16068 12.176 8.67252C11.3476 8.18435 10.4256 7.89371 9.41036 7.80059C8.4484 7.66115 7.65044 7.39703 7.38332 7.11792C7.116 6.83904 7.06108 6.2272 7.3283 5.83192C7.5955 5.43687 8.3018 5.12921 9.44698 5.25738C10.3173 5.44064 10.8823 5.86622 11.5267 6.33259C11.5267 6.33259 12.2301 6.60421 12.6664 6.06273C13.1844 5.35025 12.6536 4.80928 12.6536 4.80928C12.6536 4.80928 12.1492 4.19745 11.5348 3.96489C10.92 3.73231 10.0543 3.50626 8.93732 3.50626Z" fill="white"/>
</svg>
