<svg width="17" height="17" viewBox="0 0 17 17" fill="none" xmlns="http://www.w3.org/2000/svg">
<path fill-rule="evenodd" clip-rule="evenodd" d="M3.78041 0.0431792C3.53655 1.44082 3.36281 2.45871 3.25903 3.25329C3.22469 2.75036 3.07315 1.49715 2.80433 0.0431792H1.08467L2.40083 4.83492V7.53108H4.17305V4.83492L5.50027 0.0038681L3.78041 0.0431792ZM3.03521 8.83309H13.9636C15.6401 8.83309 16.9992 10.2395 16.9992 11.9738V13.8584C16.9992 15.593 15.6401 16.9992 13.9636 16.9992H3.03521C1.35875 16.9992 -0.000427246 15.593 -0.000427246 13.8584V11.9738C-0.000427246 10.2395 1.35875 8.83309 3.03521 8.83309ZM9.27043 1.98707C9.42769 2.18659 9.53507 2.39211 9.59287 2.60366C9.65067 2.81543 9.67955 3.13737 9.67955 3.56996V5.06524C9.67955 5.61423 9.65295 6.01678 9.59955 6.27288C9.54615 6.52898 9.43207 6.7683 9.25717 6.99061C9.08227 7.2129 8.85767 7.37712 8.58341 7.48276C8.30921 7.58867 8.14615 7.64149 7.79023 7.64149C7.39301 7.64149 6.82891 7.59617 6.55321 7.50579C6.27751 7.41543 6.06343 7.27899 5.91063 7.09624C5.75795 6.914 5.64895 6.6932 5.58381 6.43385C5.51859 6.17475 5.48597 5.78597 5.48597 5.26751V3.70315C5.48597 3.13587 5.54529 2.69277 5.66393 2.37359C5.78237 2.05465 5.99589 1.79855 6.30421 1.6053C6.61255 1.41203 7.23443 1.3154 7.71479 1.3154C8.11781 1.3154 8.31227 1.37749 8.60125 1.5019C8.89029 1.62607 9.11335 1.7878 9.27043 1.98707ZM7.83201 6.20528C7.86605 6.12542 7.88313 5.9537 7.88313 5.68983V3.18819C7.88313 2.87551 7.86681 2.67825 7.83419 2.59714C7.80149 2.51578 7.65605 2.47522 7.54933 2.47522C7.44253 2.47522 7.37147 2.51578 7.33589 2.59714C7.30033 2.67825 7.28249 2.87551 7.28249 3.18819V5.63C7.28249 5.9184 7.30033 6.1064 7.33589 6.19376C7.37147 6.28115 7.44109 6.32469 7.54485 6.32469C7.65157 6.32469 7.79785 6.28489 7.83201 6.20528ZM12.7395 5.53437V1.30814H14.536V7.53108H12.7084L12.7395 7.02389C12.6151 7.22993 12.4616 7.38413 12.2793 7.48726C12.1293 7.57196 11.9606 7.56845 11.7734 7.56456C11.7332 7.56372 11.6921 7.56287 11.6501 7.56287C11.5995 7.56287 11.5478 7.56391 11.496 7.56495C11.2721 7.56946 11.0472 7.57399 10.9027 7.49428C10.7249 7.39614 10.5937 7.26573 10.5093 7.10326C10.4248 6.94079 10.372 6.77131 10.3513 6.59506C10.3306 6.41857 10.3202 6.0681 10.3202 5.54364V1.30814H12.1167V5.58044C12.1167 6.05582 12.1308 6.33796 12.1589 6.42684C12.1872 6.51595 12.3394 6.56052 12.4639 6.56052C12.5972 6.56052 12.6766 6.51445 12.7018 6.42233C12.7269 6.33045 12.7395 6.0343 12.7395 5.53437ZM1.82223 10.0926V11.3035H2.44451V15.7119H3.66551V11.3035H4.21511V10.0926H1.82223ZM6.64333 11.3525V14.2477C6.64333 14.6144 6.63399 14.8315 6.61559 14.8991C6.59719 14.9664 6.46309 15.0002 6.36535 15.0002C6.27397 15.0002 6.10415 14.9677 6.08353 14.9023C6.06283 14.837 6.05253 14.6302 6.05253 14.2815V11.3135H4.84901V14.2545C4.84901 14.639 4.85653 14.8961 4.87181 15.0255C4.88695 15.1549 4.92559 15.2791 4.98757 15.3983C5.04957 15.5177 5.14569 15.6131 5.27615 15.6851C5.40653 15.757 5.57065 15.793 5.76855 15.793C5.94239 15.793 6.09633 15.7552 6.22991 15.6796C6.36363 15.6043 6.47617 15.4911 6.56745 15.3399L6.54463 15.7119H7.88483V11.3525H6.64333ZM8.50949 10.0926V15.7119H9.62835L9.71303 15.3737C9.82393 15.5137 10.098 15.6183 10.2318 15.6881C10.3655 15.758 10.5094 15.793 10.6639 15.793C10.879 15.793 11.065 15.7339 11.2215 15.6158C11.378 15.4976 11.4774 15.3585 11.5199 15.1975C11.5622 15.0368 11.5834 14.7922 11.5834 14.4637V12.289C11.5834 11.9583 11.5763 12.0565 11.5622 11.9553C11.548 11.8542 11.5062 11.7506 11.4367 11.6449C11.3671 11.5393 11.266 11.4572 11.1334 11.3986C11.0008 11.3403 10.8442 11.311 10.6639 11.311C10.5074 11.311 10.3622 11.343 10.2285 11.4073C10.0948 11.4714 9.82175 11.5691 9.71303 11.6997V10.0926H8.50949ZM10.266 14.3929C10.266 14.6582 10.2535 14.826 10.2285 14.8956C10.2035 14.9652 9.99789 15.0002 9.91521 15.0002C9.83481 15.0002 9.78103 14.9664 9.75385 14.8991C9.72667 14.8315 9.71303 14.6775 9.71303 14.4367V12.3499C9.71303 12.1 9.72495 12.2585 9.74899 12.1967C9.77291 12.1346 9.82499 12.1038 9.90557 12.1038C9.98807 12.1038 10.1954 12.1393 10.2236 12.2099C10.2518 12.281 10.266 12.1181 10.266 12.3499V14.3929ZM15.0768 12.9589C15.0768 12.5248 15.0283 12.3451 14.9316 12.1055C14.8348 11.866 14.6664 11.6735 14.4262 11.5285C14.186 11.3836 13.8811 11.311 13.5115 11.311C13.2093 11.311 13.0178 11.371 12.7852 11.4915C12.5526 11.6119 12.3472 11.7849 12.245 12.0109C12.1428 12.237 12.0918 12.2317 12.0918 12.623V14.086C12.0918 14.4187 12.1146 14.6723 12.1603 14.8465C12.206 15.021 12.288 15.1807 12.4065 15.3257C12.5251 15.4709 12.7287 15.585 12.9418 15.6681C13.1548 15.7512 13.3245 15.793 13.6028 15.793C13.8898 15.793 14.1284 15.7507 14.3186 15.6666C14.5088 15.5823 14.6658 15.4556 14.7898 15.2869C14.9137 15.1181 14.9926 14.9597 15.0263 14.8112C15.0599 14.6627 15.0768 14.4502 15.0768 14.1736V13.8429H13.8279V14.4334C13.8279 14.656 13.811 14.8062 13.7773 14.8838C13.7436 14.9614 13.6767 15.0002 13.5767 15.0002C13.4963 15.0002 13.4419 14.9709 13.4137 14.9124C13.3854 14.854 13.3713 14.7236 13.3713 14.5211V13.2386H15.0768V12.9589ZM13.3713 12.6668V12.3396C13.3713 12.0878 13.3821 12.2472 13.404 12.1899C13.4256 12.1326 13.4822 12.1038 13.5735 12.1038C13.6473 12.1038 13.6962 12.1376 13.7202 12.2049C13.7441 12.2725 13.7561 12.108 13.7561 12.3396V12.6668H13.3713Z" fill="white"/>
</svg>
